<svg xmlns="http://www.w3.org/2000/svg" width="234" height="333"><g transform="translate(0 -719.362)"><rect width="233.244" height="332.244" x=".378" y="719.74" rx="8.919" ry="8.946" style="fill:#fff;fill-opacity:1;stroke:gray;stroke-width:.75590551;stroke-linecap:butt;stroke-linejoin:miter;stroke-miterlimit:4;stroke-dasharray:none;stroke-opacity:1"/><path d="m58.63 814.076 28.243-28.336-28.243-28.337-28.244 28.337ZM58.63 1014.321l28.243-28.336-28.243-28.337-28.244 28.337ZM175.37 814.076l28.244-28.336-28.244-28.337-28.243 28.337ZM175.37 1014.321l28.244-28.336-28.244-28.337-28.243 28.337zM17.206 780.702l9.414-9.445-9.414-9.446-9.415 9.446zM216.794 991.022l9.415 9.446-9.415 9.445-9.414-9.445z" style="fill:red;fill-opacity:1;stroke:none;stroke-width:1"/><g aria-label="4" style="font-style:normal;font-variant:normal;font-weight:700;font-stretch:normal;font-size:3.77201176px;line-height:0%;font-family:&quot;Levenim MT&quot;;-inkscape-font-specification:&quot;Sans Bold&quot;;letter-spacing:0;word-spacing:0;fill:red;fill-opacity:1;stroke:none;stroke-width:1"><path d="M28.418 706.772q0 .386-.147.754-.331.184-.7.184H15.754q-1.362 0-1.362-1.38 0-.221.037-.773.036-.552.036-.847 0-.644.276-.828.203-.13.902-.13h4.602v-2.834H9.92q-1.602 0-1.602-1.49 0-.259.055-.94.056-.7.056-1.104 0-.626.718-1.565l10.64-13.99q.496-.662 1.25-.662h2.43q.866 0 .866.957v15.02q.662 0 1.51-.036.864-.037 1.104-.037.994 0 1.233.497.24.479.24 2.393 0 .35-.056.534-.11.423-.847.423h-3.184v2.835q.68 0 1.546-.037.865-.037 1.086-.037 1.05 0 1.27.534.184.442.184 2.559zm-8.1-19.696q-1.011 1.546-7.472 10.069h7.4q0-.976-.038-3.35-.055-2.154-.036-3.37.018-1.84.147-3.35z" style="font-size:37.69855499px;line-height:1.25;stroke-width:1" transform="scale(.93673 1.06755)"/></g><g aria-label="4" style="font-style:normal;font-variant:normal;font-weight:700;font-stretch:normal;font-size:3.77201176px;line-height:0%;font-family:&quot;Levenim MT&quot;;-inkscape-font-specification:&quot;Sans Bold&quot;;letter-spacing:0;word-spacing:0;fill:red;fill-opacity:1;stroke:none;stroke-width:1"><path d="M-221.388-952.85q0 .386-.147.754-.331.184-.7.184h-11.817q-1.362 0-1.362-1.38 0-.221.037-.773.036-.553.036-.847 0-.644.276-.828.203-.13.902-.13h4.602v-2.834h-10.326q-1.602 0-1.602-1.491 0-.258.055-.939.056-.7.056-1.104 0-.626.718-1.565l10.64-13.99q.496-.662 1.25-.662h2.43q.866 0 .866.957v15.02q.662 0 1.51-.036.864-.037 1.104-.037.994 0 1.233.497.24.478.24 2.393 0 .35-.056.534-.11.423-.847.423h-3.184v2.835q.68 0 1.546-.037.865-.037 1.086-.037 1.05 0 1.27.534.184.442.184 2.559zm-8.099-19.696q-1.012 1.546-7.473 10.068h7.4q0-.975-.037-3.35-.056-2.153-.037-3.368.018-1.841.147-3.35z" style="font-size:37.69855499px;line-height:1.25;stroke-width:1" transform="scale(-.93673 -1.06755)"/></g></g></svg>